<svg xmlns="http://www.w3.org/2000/svg" viewBox="0 0 120 120" width="120" height="120">
  <!-- UEFA Champions League starball -->
  <circle cx="60" cy="60" r="50" fill="none" stroke="#ffffff" stroke-width="3"/>
  <!-- 8 stars arranged in circle -->
  <g fill="#ffffff">
    <polygon points="60,14 62.5,21 70,21 64,26 66,33 60,29 54,33 56,26 50,21 57.5,21" />
    <polygon points="92,28 89.5,35.5 94,42 86.5,41 82,47.5 81.5,40 74.5,37 81,34 82,26.5 86,33" />
    <polygon points="106,60 99,62.5 99,70 94,64 87,66 91,60 87,54 94,56 99,50 99,57.5" />
    <polygon points="92,92 86,87 82,93.5 81.5,86 74.5,83 81,80 82,72.5 86,79 94,78 89.5,84.5" />
    <polygon points="60,106 57.5,99 50,99 56,94 54,87 60,91 66,87 64,94 70,99 62.5,99" />
    <polygon points="28,92 34,87 38,93.5 38.5,86 45.5,83 39,80 38,72.5 34,79 26,78 30.5,84.5" />
    <polygon points="14,60 21,57.5 21,50 26,56 33,54 29,60 33,66 26,64 21,70 21,62.5" />
    <polygon points="28,28 34,33 38,26.5 38.5,34 45.5,37 39,40 38,47.5 34,41 26,42 30.5,35.5" />
  </g>
</svg>
